<svg width="64" height="64" viewBox="0 0 64 64" fill="none" xmlns="http://www.w3.org/2000/svg">
  <rect width="64" height="64" rx="14" fill="#0055A4"/>
  <path d="M18 38c0-8 6.5-14.5 14.5-14.5 6 0 11.1 3.6 13.3 9 5 .2 9.2 4.4 9.2 9.5 0 5.3-4.3 9.6-9.6 9.6H22.6C19 51.6 16 48.6 16 45c0-3.3 2.4-6 5.5-7-2-8 3.6-15 11-15 6.2 0 11.2 5 11.2 11.2" stroke="white" stroke-width="2" fill="none"/>
  <path d="M24 34l6 10 10-18" stroke="#00AEEF" stroke-width="4" stroke-linecap="round" stroke-linejoin="round"/>
</svg>
